<?xml version="1.0" encoding="UTF-8"?>
<svg xmlns="http://www.w3.org/2000/svg" xmlns:xlink="http://www.w3.org/1999/xlink" width="375pt" height="374.999991pt" viewBox="0 0 375 374.999991" version="1.2">
<g id="surface1">
<path style=" stroke:none;fill-rule:nonzero;fill:rgb(96.859741%,58.039856%,11.369324%);fill-opacity:1;" d="M 265.066406 176.605469 C 265.070312 176.488281 265.070312 176.367188 265.066406 176.25 C 264.394531 133.921875 229.878906 99.804688 187.390625 99.804688 C 144.472656 99.804688 109.695312 134.582031 109.695312 177.496094 C 109.695312 177.679688 109.695312 177.875 109.695312 178.058594 C 109.722656 183.109375 110.238281 188.109375 111.246094 193.058594 C 112.25 198.007812 113.726562 202.8125 115.671875 207.472656 C 117.617188 212.136719 119.996094 216.5625 122.808594 220.757812 C 125.621094 224.953125 128.816406 228.835938 132.386719 232.40625 C 132.421875 232.433594 132.449219 232.460938 132.472656 232.492188 C 135.636719 235.65625 139.046875 238.523438 142.707031 241.097656 C 146.367188 243.667969 150.21875 245.90625 154.269531 247.808594 C 158.316406 249.714844 162.496094 251.253906 166.8125 252.433594 C 171.128906 253.613281 175.511719 254.410156 179.964844 254.828125 C 182.113281 255.035156 184.28125 255.15625 186.472656 255.175781 C 186.554688 255.179688 186.636719 255.179688 186.71875 255.175781 C 186.890625 255.175781 187.054688 255.175781 187.210938 255.175781 L 228.085938 255.175781 L 228.085938 197.691406 C 228.085938 190.480469 228.351562 183.242188 228.195312 176.035156 C 228.0625 170.863281 226.980469 165.902344 224.945312 161.144531 C 224.460938 160.015625 223.929688 158.90625 223.347656 157.820312 C 222.765625 156.734375 222.136719 155.679688 221.460938 154.648438 C 220.785156 153.621094 220.066406 152.625 219.296875 151.664062 C 218.53125 150.699219 217.726562 149.769531 216.875 148.878906 C 216.027344 147.988281 215.140625 147.136719 214.214844 146.328125 C 213.289062 145.515625 212.328125 144.746094 211.332031 144.023438 C 210.339844 143.296875 209.3125 142.617188 208.257812 141.984375 C 207.203125 141.351562 206.121094 140.769531 205.011719 140.234375 C 203.902344 139.695312 202.773438 139.210938 201.621094 138.777344 C 200.46875 138.34375 199.300781 137.960938 198.117188 137.632812 C 196.929688 137.304688 195.730469 137.027344 194.519531 136.808594 C 193.308594 136.585938 192.089844 136.417969 190.863281 136.308594 C 189.640625 136.195312 188.410156 136.136719 187.179688 136.136719 C 185.949219 136.136719 184.722656 136.1875 183.496094 136.296875 C 182.269531 136.40625 181.050781 136.570312 179.839844 136.789062 C 178.628906 137.007812 177.429688 137.277344 176.242188 137.605469 C 175.054688 137.929688 173.882812 138.308594 172.730469 138.738281 C 171.578125 139.171875 170.449219 139.652344 169.339844 140.1875 C 168.226562 140.71875 167.144531 141.300781 166.085938 141.929688 C 165.03125 142.5625 164.003906 143.238281 163.007812 143.960938 C 162.011719 144.683594 161.046875 145.449219 160.121094 146.257812 C 159.191406 147.066406 158.304688 147.914062 157.453125 148.804688 C 156.601562 149.691406 155.789062 150.617188 155.023438 151.578125 C 154.253906 152.539062 153.53125 153.535156 152.851562 154.5625 C 152.171875 155.585938 151.539062 156.640625 150.957031 157.726562 C 150.371094 158.808594 149.835938 159.917969 149.351562 161.046875 C 148.867188 162.179688 148.433594 163.328125 148.054688 164.5 C 147.671875 165.671875 147.34375 166.855469 147.070312 168.054688 C 146.792969 169.253906 146.574219 170.464844 146.40625 171.683594 C 146.242188 172.902344 146.128906 174.128906 146.074219 175.359375 C 146.015625 176.585938 146.015625 177.816406 146.070312 179.046875 C 146.125 180.277344 146.234375 181.5 146.398438 182.722656 C 146.5625 183.941406 146.78125 185.152344 147.054688 186.351562 C 147.328125 187.550781 147.65625 188.738281 148.035156 189.910156 C 148.414062 191.078125 148.847656 192.230469 149.328125 193.363281 C 149.8125 194.496094 150.347656 195.605469 150.929688 196.6875 C 151.511719 197.773438 152.140625 198.828125 152.820312 199.855469 C 153.496094 200.882812 154.21875 201.878906 154.988281 202.84375 C 155.753906 203.804688 156.5625 204.730469 157.414062 205.621094 C 158.261719 206.511719 159.152344 207.363281 160.078125 208.171875 C 161.003906 208.980469 161.964844 209.75 162.960938 210.472656 C 163.957031 211.195312 164.984375 211.875 166.039062 212.507812 C 167.09375 213.136719 168.175781 213.71875 169.285156 214.253906 C 170.394531 214.789062 171.527344 215.273438 172.675781 215.707031 C 173.828125 216.136719 175 216.519531 176.183594 216.847656 C 177.371094 217.171875 178.570312 217.449219 179.78125 217.667969 C 180.992188 217.886719 182.210938 218.050781 183.4375 218.164062 C 184.660156 218.273438 185.890625 218.328125 187.121094 218.328125 C 190.296875 218.335938 193.429688 217.976562 196.519531 217.25 C 199.609375 216.527344 202.578125 215.457031 205.417969 214.042969 L 205.417969 232.34375 L 187.207031 232.34375 C 156.996094 232.246094 132.546875 207.734375 132.546875 177.488281 C 132.546875 147.246094 157.089844 122.65625 187.390625 122.65625 C 189.886719 122.65625 192.371094 122.824219 194.847656 123.164062 C 197.320312 123.503906 199.761719 124.011719 202.164062 124.683594 C 204.570312 125.355469 206.917969 126.1875 209.210938 127.179688 C 211.5 128.175781 213.714844 129.320312 215.847656 130.613281 C 217.984375 131.910156 220.019531 133.34375 221.960938 134.917969 C 223.898438 136.492188 225.722656 138.191406 227.429688 140.011719 C 229.136719 141.835938 230.710938 143.765625 232.152344 145.804688 C 233.597656 147.84375 234.894531 149.96875 236.046875 152.1875 C 241.292969 162.25 242.351562 173.570312 242.351562 184.742188 L 242.351562 274.976562 L 265.011719 274.976562 L 265.011719 180.402344 C 265.042969 179.777344 265.054688 179.140625 265.066406 178.503906 C 265.066406 178.160156 265.066406 177.824219 265.066406 177.488281 C 265.082031 177.199219 265.082031 176.898438 265.066406 176.605469 Z M 187.023438 195.035156 C 186.4375 195.035156 185.851562 195.007812 185.269531 194.949219 C 184.683594 194.890625 184.105469 194.804688 183.53125 194.691406 C 182.957031 194.578125 182.390625 194.433594 181.828125 194.265625 C 181.265625 194.09375 180.714844 193.894531 180.175781 193.671875 C 179.632812 193.449219 179.105469 193.199219 178.585938 192.921875 C 178.070312 192.644531 177.570312 192.34375 177.082031 192.019531 C 176.59375 191.691406 176.125 191.34375 175.671875 190.972656 C 175.21875 190.601562 174.785156 190.207031 174.371094 189.792969 C 173.957031 189.378906 173.5625 188.945312 173.191406 188.492188 C 172.820312 188.039062 172.472656 187.566406 172.144531 187.082031 C 171.820312 186.59375 171.519531 186.089844 171.242188 185.574219 C 170.964844 185.058594 170.714844 184.527344 170.492188 183.988281 C 170.269531 183.445312 170.070312 182.894531 169.902344 182.332031 C 169.730469 181.773438 169.589844 181.203125 169.472656 180.628906 C 169.359375 180.054688 169.273438 179.476562 169.214844 178.894531 C 169.160156 178.308594 169.128906 177.726562 169.128906 177.140625 C 169.128906 176.550781 169.160156 175.96875 169.214844 175.382812 C 169.273438 174.800781 169.359375 174.222656 169.476562 173.648438 C 169.589844 173.074219 169.730469 172.503906 169.902344 171.945312 C 170.070312 171.382812 170.269531 170.832031 170.492188 170.289062 C 170.71875 169.75 170.96875 169.21875 171.246094 168.703125 C 171.519531 168.183594 171.820312 167.683594 172.148438 167.195312 C 172.472656 166.707031 172.820312 166.238281 173.195312 165.785156 C 173.566406 165.332031 173.957031 164.898438 174.375 164.484375 C 174.789062 164.070312 175.222656 163.675781 175.675781 163.304688 C 176.128906 162.933594 176.597656 162.582031 177.085938 162.257812 C 177.574219 161.933594 178.074219 161.632812 178.589844 161.355469 C 179.109375 161.078125 179.636719 160.828125 180.179688 160.605469 C 180.71875 160.378906 181.269531 160.183594 181.832031 160.011719 C 182.394531 159.84375 182.960938 159.699219 183.535156 159.585938 C 184.109375 159.472656 184.691406 159.386719 185.273438 159.328125 C 185.855469 159.269531 186.441406 159.242188 187.027344 159.242188 C 187.613281 159.242188 188.199219 159.269531 188.78125 159.328125 C 189.363281 159.386719 189.941406 159.472656 190.515625 159.585938 C 191.09375 159.699219 191.660156 159.84375 192.222656 160.011719 C 192.78125 160.183594 193.332031 160.378906 193.875 160.605469 C 194.414062 160.828125 194.945312 161.078125 195.460938 161.355469 C 195.980469 161.628906 196.480469 161.929688 196.96875 162.257812 C 197.457031 162.582031 197.925781 162.929688 198.378906 163.300781 C 198.832031 163.675781 199.265625 164.066406 199.679688 164.480469 C 200.09375 164.894531 200.488281 165.328125 200.859375 165.78125 C 201.230469 166.234375 201.578125 166.707031 201.90625 167.191406 C 202.230469 167.679688 202.53125 168.183594 202.808594 168.699219 C 203.085938 169.214844 203.335938 169.746094 203.558594 170.285156 C 203.785156 170.828125 203.980469 171.378906 204.152344 171.941406 C 204.320312 172.5 204.464844 173.066406 204.578125 173.644531 C 204.691406 174.21875 204.777344 174.796875 204.835938 175.378906 C 204.894531 175.964844 204.921875 176.546875 204.921875 177.132812 C 204.921875 177.71875 204.894531 178.304688 204.835938 178.886719 C 204.78125 179.472656 204.695312 180.050781 204.582031 180.625 C 204.464844 181.203125 204.324219 181.769531 204.152344 182.332031 C 203.984375 182.890625 203.785156 183.445312 203.5625 183.984375 C 203.335938 184.527344 203.085938 185.054688 202.8125 185.574219 C 202.535156 186.089844 202.234375 186.59375 201.90625 187.082031 C 201.582031 187.566406 201.234375 188.039062 200.863281 188.492188 C 200.488281 188.945312 200.097656 189.378906 199.679688 189.792969 C 199.265625 190.207031 198.832031 190.601562 198.378906 190.972656 C 197.925781 191.34375 197.457031 191.695312 196.96875 192.019531 C 196.480469 192.34375 195.980469 192.648438 195.460938 192.921875 C 194.945312 193.199219 194.414062 193.449219 193.875 193.675781 C 193.332031 193.898438 192.78125 194.09375 192.21875 194.265625 C 191.65625 194.4375 191.089844 194.578125 190.515625 194.691406 C 189.941406 194.804688 189.359375 194.890625 188.777344 194.949219 C 188.191406 195.007812 187.609375 195.035156 187.023438 195.035156 Z M 187.023438 195.035156 "/>
</g>
</svg>
